<svg width="362" height="362" xmlns="http://www.w3.org/2000/svg" xmlns:xlink="http://www.w3.org/1999/xlink" xml:space="preserve" overflow="hidden"><g transform="translate(-335 -297)"><path d="M515.966 378.548 418.686 436.958 515.985 495.58 613.265 437.169 515.966 378.548Z" fill="#FFFFFF"/><path d="M465.727 560.943 409.651 526.957 409.651 568.741 510.265 629.727 510.265 520.494 465.727 560.943Z" fill="#FFFFFF"/><path d="M566.152 560.958 521.656 520.52 521.656 629.727 622.27 568.741 622.27 526.934ZM557.355 591.476 534.635 604.459 534.635 581.724 557.355 568.741Z" fill="#FFFFFF"/><path d="M510.242 368.793 464.374 327.129 363.127 388.495 408.558 429.846 510.242 368.793Z" fill="#FFFFFF"/><path d="M623.212 429.956 668.764 388.495 567.513 327.129 521.664 368.774 623.212 429.956Z" fill="#FFFFFF"/><path d="M408.633 444.108 363.127 485.53 464.374 546.893 510.178 505.29 408.633 444.108Z" fill="#FFFFFF"/><path d="M521.743 505.32 567.513 546.893 668.764 485.53 623.427 444.262 521.743 505.32Z" fill="#FFFFFF"/></g></svg>