<svg width="561" height="561" xmlns="http://www.w3.org/2000/svg" xmlns:xlink="http://www.w3.org/1999/xlink" xml:space="preserve" overflow="hidden"><g transform="translate(-331 -108)"><path d="M662.925 169.359 686.3 169.359 686.3 239.484 662.925 239.484Z" fill="#FFFFFF"/><path d="M811.36 230.671 761.775 280.256 745.246 263.728 794.832 214.142Z" fill="#FFFFFF"/><path d="M785.644 338.828 855.769 338.828 855.769 362.203 785.644 362.203Z" fill="#FFFFFF"/><path d="M811.241 470.216 794.713 486.745 745.127 437.159 761.656 420.631Z" fill="#FFFFFF"/><path d="M493.456 338.828 563.581 338.828 563.581 362.203 493.456 362.203Z" fill="#FFFFFF"/><path d="M604.454 264.023 587.926 280.552 538.34 230.966 554.869 214.438Z" fill="#FFFFFF"/><path d="M709.675 496.609C706.753 496.609 703.831 496.609 700.909 497.194 700.909 497.194 700.909 496.609 700.909 496.609 700.909 474.403 690.391 452.781 671.691 439.925 653.575 426.484 630.2 422.978 608.578 429.991 590.463 396.097 551.309 378.566 513.909 387.916 476.509 396.681 450.212 429.991 449.044 468.559 424.5 463.884 398.203 473.234 381.841 493.688 366.062 514.141 362.556 542.191 373.075 565.566 383.594 589.525 406.384 605.303 432.681 607.056L713.181 607.641C743.569 607.056 768.113 581.344 766.944 550.372 766.359 519.984 740.647 496.025 709.675 496.609Z" fill="#FFFFFF"/><path d="M591.631 378.566C602.15 384.994 612.084 393.759 619.681 403.694 650.069 400.188 679.872 411.291 700.325 434.081 734.219 423.562 758.762 393.759 761.684 358.112 764.606 322.466 745.906 288.572 714.35 272.209 682.794 255.847 644.225 260.522 617.344 283.897 590.463 307.272 580.528 344.672 591.631 378.566L591.631 378.566Z" fill="#FFFFFF"/></g></svg>