<svg width="327" height="327" xmlns="http://www.w3.org/2000/svg" xmlns:xlink="http://www.w3.org/1999/xlink" xml:space="preserve" overflow="hidden"><g transform="translate(-409 -204)"><path d="M628.703 379.422 650.844 401.562 672.984 379.422 695.125 401.562 722.375 367.5 695.125 333.438 557.172 333.438C544.909 310.956 521.406 295.969 494.156 295.969 454.644 295.969 422.625 327.987 422.625 367.5 422.625 407.013 454.644 439.031 494.156 439.031 521.406 439.031 544.909 424.044 557.172 401.562L579.312 401.562 592.938 387.938 606.562 401.562 628.703 379.422ZM463.5 387.938C452.259 387.938 443.062 378.741 443.062 367.5 443.062 356.259 452.259 347.062 463.5 347.062 474.741 347.062 483.938 356.259 483.938 367.5 483.938 378.741 474.741 387.938 463.5 387.938Z" fill="#FFFFFF"/></g></svg>