<svg width="460" height="460" xmlns="http://www.w3.org/2000/svg" xmlns:xlink="http://www.w3.org/1999/xlink" xml:space="preserve" overflow="hidden"><g transform="translate(-163 -159)"><path d="M600 301.312 530.042 232.792C528.125 230.875 525.729 229.438 523.333 228.479L458.167 204.042C454.812 202.604 450.5 203.562 448.104 206.438 434.208 220.812 414.562 229.917 393 229.917 371.438 229.917 351.792 220.812 337.896 206.438 335.5 203.562 331.188 203.083 327.833 204.042L262.667 228.479C260.271 229.438 257.875 230.875 255.958 232.792L186 301.312C182.167 305.625 182.646 312.333 186.958 315.688L251.167 364.083C255 366.958 260.271 366.958 263.625 363.604L287.583 341.083 287.583 574.438 498.417 574.438 498.417 341.562 522.375 364.083C525.729 367.438 531.479 367.438 534.833 364.562L599.042 315.688C603.354 312.333 603.833 305.625 600 301.312Z" fill="#FFFFFF"/></g></svg>